{"title":"Ghost in the Shell S.A.C  Solid State Society [ENG]  1280x720 sa","uid":6691116,"size":473353491,"categoryP":"video","categoryS":"hd___movies","magnet":"?xt=urn:btih:decd8b447b02b6e281d50d08576f08bf5a8dcf9f&amp;dn=Ghost+in+the+Shell+S.A.C++Solid+State+Society+%5BENG%5D++1280x720+sa&amp;tr=udp%3A%2F%2Ftracker.openbittorrent.com%3A80&amp;tr=udp%3A%2F%2Fopen.demonii.com%3A1337&amp;tr=udp%3A%2F%2Ftracker.coppersurfer.tk%3A6969&amp;tr=udp%3A%2F%2Fexodus.desync.com%3A6969","seeders":0,"leechers":0,"uploader":"salmansk","files":6,"time":1316588377,"description":"\n\n\n[img]http://i.imgur.com/kgg93.jpg[/img]\n\n[img]http://i.imgur.com/1Tbiw.jpg[/img]\n\n[img]http://i.imgur.com/5hWt8.jpg[/img]\n\n[img]http://i.imgur.com/QPNDu.jpg[/img]\n\nA.D. 2034. It has been two years since Motoko Kusanagi left Section 9. Togusa is now the new \n\nleader of the team, that has considerably increased its appointed personnel. The expanded new \n\nSection 9 confronts a rash of complicated incidents, and investigations reveal that an ultra-\n\nwizard hacker nicknamed the \\\\\\&quot;Puppet Master\\\\\\&quot; is behind the entire series of events\n &lt;a href=&quot;\nhttp://i.minus.com/i9GBc6dWn7UCX.jpg&quot; rel=&quot;nofollow&quot; target=&quot;_NEW&quot;&gt;\nhttp://i.minus.com/i9GBc6dWn7UCX.jpg&lt;/a&gt; &lt;a href=&quot;\nhttp://www.imdb.com/title/tt0856797/&quot; rel=&quot;nofollow&quot; target=&quot;_NEW&quot;&gt;\nhttp://www.imdb.com/title/tt0856797/&lt;/a&gt;\n\n\nComplete name                    : Ghost in the Shell S.A.C  Solid State Society [ENG]  1280x720 \n\nsalman sk.m4v\nFormat                           : MPEG-4\nFormat profile                   : Base Media / Version 2\nCodec ID                         : mp42\nFile size                        : 450 MiB\nDuration                         : 1h 48mn\nOverall bit rate                 : 579 Kbps\nEncoded date                     : UTC 2011-09-20 11:56:23\nTagged date                      : UTC 2011-09-20 13:18:36\nlanguage\t\t\t : English\n\nvideo\nID                               : 1\nFormat                           : AVC\nFormat/Info                      : Advanced Video Codec\nFormat profile                   : &lt;a class=&quot;__cf_email__&quot; href=&quot;/cdn-cgi/l/email-protection&quot; data-cfemail=&quot;eca18d8582aca0dfc2dd&quot;&gt;[email&amp;#160;protected]&lt;/a&gt;&lt;script data-cfhash='f9e31' type=&quot;text/javascript&quot;&gt;\n/* &lt;![CDATA[ */!function(){try{var t=&quot;currentScript&quot;in document?document.currentScript:function(){for(var t=document.getElementsByTagName(&quot;script&quot;),e=t.length;e--;)if(t[e].getAttribute(&quot;data-cfhash&quot;))return t[e]}();if(t&amp;&amp;t.previousSibling){var e,r,n,i,c=t.previousSibling,a=c.getAttribute(&quot;data-cfemail&quot;);if(a){for(e=&quot;&quot;,r=parseInt(a.substr(0,2),16),n=2;a.length-n;n+=2)i=parseInt(a.substr(n,2),16)^r,e+=String.fromCharCode(i);e=document.createTextNode(e),c.parentNode.replaceChild(e,c)}t.parentNode.removeChild(t);}}catch(u){}}()/* ]]&gt; */&lt;/script&gt;\nFormat settings, CABAC           : Yes\nFormat settings, ReFrames        : 4 frames\nFormat settings, GOP             : M=3, N=16\nCodec ID                         : avc1\nCodec ID/Info                    : Advanced Video Coding\nDuration                         : 1h 48mn\nBit rate mode                    : Variable\nBit rate                         : 415 Kbps\nWidth                            : 1 280 pixels\nHeight                           : 720 pixels\nDisplay aspect ratio             : 16:9\nFrame rate mode                  : Constant\nFrame rate                       : 29.970 fps\nColor space                      : YUV\nChroma subsampling               : 4:2:0\nBit depth                        : 8 bits\nScan type                        : Progressive\nBits/(Pixel*Frame)               : 0.015\nStream size                      : 322 MiB (72%)\nWriting library                  : x264 core 112\n\naudio\nID                               : 2\nFormat                           : AAC\nFormat/Info                      : Advanced Audio Codec\nFormat version                   : Version 4\nFormat profile                   : LC\nFormat settings, SBR             : No\nCodec ID                         : 40\nDuration                         : 1h 48mn\nBit rate mode                    : Variable\nBit rate                         : 160 Kbps\nMaximum bit rate                 : 285 Kbps\nChannel(s)                       : 2 channels\nChannel positions                : Front: L R\nSampling rate                    : 48.0 KHz\nStream size                      : 124 MiB (28%)\nLanguage                         : English\nEncoded date                     : UTC 2011-09-20 11:56:23\nTagged date                      : UTC 2011-09-20 13:18:36","torrent":{"xt":"urn:btih:decd8b447b02b6e281d50d08576f08bf5a8dcf9f","amp;dn":"Ghost+in+the+Shell+S.A.C++Solid+State+Society+%5BENG%5D++1280x720+sa","amp;tr":["udp%3A%2F%2Ftracker.openbittorrent.com%3A80","udp%3A%2F%2Fopen.demonii.com%3A1337","udp%3A%2F%2Ftracker.coppersurfer.tk%3A6969","udp%3A%2F%2Fexodus.desync.com%3A6969"],"infoHash":"decd8b447b02b6e281d50d08576f08bf5a8dcf9f","infoHashBuffer":{"type":"Buffer","data":[222,205,139,68,123,2,182,226,129,213,13,8,87,111,8,191,90,141,207,159]},"announce":[],"urlList":[]}}